<?xml version="1.0" encoding="UTF-8"?>
<!DOCTYPE svg PUBLIC "-//W3C//DTD SVG 1.1//EN" "http://www.w3.org/Graphics/SVG/1.1/DTD/svg11.dtd">
<svg version="1.1" id="Layer_1" xmlns="http://www.w3.org/2000/svg" xmlns:xlink="http://www.w3.org/1999/xlink" x="0px" y="0px" width="24px" height="24px" viewBox="0 0 24 24" enable-background="new 0 0 24 24" xml:space="preserve">
  <g id="icon">
    <path d="M15.5,14h-0.79l-0.28,-0.27C15.41,12.59,16,11.11,16,9.5,16,5.91,13.09,3,9.5,3S3,5.91,3,9.5,5.91,16,9.5,16c1.61,0,3.09,-0.59,4.23,-1.57l0.27,0.28v0.79l5,4.99L20.49,19l-4.99,-5zm-6,0C7.01,14,5,11.99,5,9.5S7.01,5,9.5,5,14,7.01,14,9.5,11.99,14,9.5,14z" fill="#AAB2BD"/>
  </g>
</svg>
